#!OML:ASF E:\inclinewalkrobotboard\Project 1\Capture day 1\Session 1\subject1.ASF
:FULLY-SPECIFIED
:DEGREES
303
root 8.49154 24.1205 -4.85319 -170.182 -0.246652 178.018
lowerback 5.8266 2.47494 -5.51443
upperback 5.58234 2.64946 1.10822
thorax 2.20562 0.945707 4.12277
lowerneck -6.18362 0.0460349 -4.23471
upperneck 27.8773 -3.81054 7.04805
head 10.0303 -2.32432 2.6791
rclavicle 1.98785e-015 1.27222e-014
rhumerus -21.9418 -13.2253 -81.363
rradius 35.6244
rwrist 3.57751
rhand -12.1634 -39.0955
rfingers 7.12502
rthumb 13.8995 -68.611
lclavicle 1.98785e-015 1.27222e-014
lhumerus -30.288 13.5439 78.2085
lradius 19.1207
lwrist -26.4732
lhand -25.2445 -22.944
lfingers 7.12502
lthumb 1.27545 7.03195
rfemur -19.1461 0.64786 23.0902
rtibia 16.6886
rfoot -18.637 -4.12851
rtoes -26.6407
lfemur -46.6617 -5.65385 -18.3694
ltibia 41.2122
lfoot -17.9563 1.05811
ltoes -48.0559
304
root 8.50869 24.1317 -5.00975 -170.572 0.78298 178.472
lowerback 5.64305 2.23365 -5.4022
upperback 5.71499 3.25625 1.18136
thorax 2.41633 1.62742 4.13737
lowerneck -6.29939 0.101627 -4.3523
upperneck 28.1877 -3.75961 6.98722
head 10.1635 -2.32947 2.68481
rclavicle -3.26007e-014 -7.15625e-015
rhumerus -20.7746 -12.4055 -82.1636
rradius 36.3111
rwrist 4.19468
rhand -12.1045 -38.6831
rfingers 7.12502
rthumb 13.9563 -68.1947
lclavicle -3.26007e-014 -7.15625e-015
lhumerus -30.842 13.8838 77.7941
lradius 19.0072
lwrist -26.3222
lhand -25.1989 -22.4763
lfingers 7.12502
lthumb 1.31945 7.49938
rfemur -17.88 0.955313 23.7091
rtibia 16.2006
rfoot -18.9238 -3.30859
rtoes -27.07
lfemur -46.8495 -5.23166 -17.3518
ltibia 38.3671
lfoot -17.709 0.796638
ltoes -47.7477
305
root 8.50691 24.1356 -5.16876 -170.89 0.811327 178.541
lowerback 5.49928 2.21489 -5.11335
upperback 5.76439 3.25215 1.20768
thorax 2.5588 1.63034 4.01157
lowerneck -6.50512 0.202678 -4.23185
upperneck 28.6211 -3.67773 6.83212
head 10.3544 -2.30822 2.61847
rclavicle -3.18055e-014 -1.59028e-015
rhumerus -20.1071 -11.06 -82.8979
rradius 37.2915
rwrist 4.11753
rhand -12.2869 -38.8358
rfingers 7.12502
rthumb 13.7805 -68.3594
lclavicle -3.18055e-014 -1.59028e-015
lhumerus -31.4133 13.943 77.5095
lradius 18.9751
lwrist -26.0982
lhand -24.986 -21.8919
lfingers 7.12502
lthumb 1.52506 8.08239
rfemur -16.5059 0.326064 23.7915
rtibia 15.4801
rfoot -19.2567 -2.771
rtoes -27.4297
lfemur -47.2293 -5.90645 -16.8125
ltibia 35.9168
lfoot -16.4955 0.428983
ltoes -45.5012
306
root 8.51743 24.1367 -5.31329 -171.263 1.32103 178.682
lowerback 5.57281 2.37223 -5.07153
upperback 5.72929 3.45328 1.2443
thorax 2.45933 1.73359 4.01188
lowerneck -6.43652 0.353383 -3.91362
upperneck 28.9089 -3.54551 6.62427
head 10.432 -2.25788 2.50269
rclavicle -4.96962e-015 -3.18055e-015
rhumerus -19.6344 -9.52041 -83.6906
rradius 38.1036
rwrist 3.2448
rhand -13.2671 -38.6668
rfingers 7.12502
rthumb 12.8357 -68.2522
lclavicle -4.96962e-015 -3.18055e-015
lhumerus -31.9056 14.5082 76.963
lradius 18.5476
lwrist -26.9192
lhand -25.2268 -22.7106
lfingers 7.12502
lthumb 1.29252 7.26526
rfemur -15.2116 0.1454 24.0033
rtibia 14.8886
rfoot -19.5687 -2.33354
rtoes -28.537
lfemur -47.4192 -5.87762 -16.324
ltibia 34.2457
lfoot -13.7207 0.91875
ltoes -41.5116
307
root 8.52072 24.1333 -5.47607 -171.639 2.06807 178.893
lowerback 5.34685 2.56243 -4.98336
upperback 5.77934 3.71963 1.31635
thorax 2.60909 1.86224 4.03898
lowerneck -6.26109 0.474806 -4.24937
upperneck 28.9547 -3.41968 6.85644
head 10.4122 -2.22759 2.65902
rclavicle -2.0276e-014 -1.15295e-014
rhumerus -19.1059 -8.20053 -84.447
rradius 38.5368
rwrist 2.33857
rhand -14.5651 -37.9
rfingers 7.12502
rthumb 11.5842 -67.5598
lclavicle -2.0276e-014 -1.15295e-014
lhumerus -32.403 14.9749 76.5222
lradius 18.1387
lwrist -27.5397
lhand -25.1225 -23.2114
lfingers 7.12502
lthumb 1.39325 6.76383
rfemur -13.8758 0.152888 24.1849
rtibia 14.3759
rfoot -19.9633 -1.42266
rtoes -27.8907
lfemur -47.4331 -5.60213 -15.8717
ltibia 33.3281
lfoot -11.3818 1.4464
ltoes -41.2221
308
root 8.52901 24.1321 -5.61965 -171.91 2.40629 178.974
lowerback 5.40381 2.64035 -5.05409
upperback 5.72526 3.80801 1.45147
thorax 2.49896 1.90321 4.20932
lowerneck -6.18489 0.563816 -4.77056
upperneck 29.249 -3.41073 7.2086
head 10.5162 -2.26956 2.88076
rclavicle -1.13307e-014 -1.11319e-014
rhumerus -18.655 -7.22215 -85.0268
rradius 38.8635
rwrist 2.24439
rhand -14.8335 -38.4563
rfingers 7.12502
rthumb 11.3253 -68.1305
lclavicle -1.13307e-014 -1.11319e-014
lhumerus -32.8882 15.642 76.15
lradius 17.7508
lwrist -28.5169
lhand -24.6982 -22.9973
lfingers 7.12502
lthumb 1.80307 6.97482
rfemur -12.7925 0.16786 24.2026
rtibia 14.1424
rfoot -20.466 -0.38076
rtoes -24.7039
lfemur -47.6827 -5.50799 -15.6386
ltibia 32.6977
lfoot -8.94605 2.22559
ltoes -41.7372
309
root 8.53134 24.1324 -5.77055 -172.122 2.839 178.981
lowerback 5.35268 2.78086 -5.08408
upperback 5.6909 3.98852 1.47166
thorax 2.46854 1.99072 4.23995
lowerneck -6.14235 0.61399 -4.8312
upperneck 29.5691 -3.48587 7.3572
head 10.6365 -2.32199 2.93912
rclavicle 5.94366e-014 3.97569e-015
rhumerus -18.289 -6.58421 -85.6113
rradius 39.2247
rwrist 2.46553
rhand -13.6127 -41.4882
rfingers 7.12502
rthumb 12.5026 -71.0942
lclavicle 5.94366e-014 3.97569e-015
lhumerus -33.2176 16.2245 75.7557
lradius 17.4101
lwrist -29.8501
lhand -24.5576 -22.9394
lfingers 7.12502
lthumb 1.93888 7.03153
rfemur -11.8113 0.311062 24.1146
rtibia 13.9771
rfoot -20.9557 0.288682
rtoes -23.7621
lfemur -47.7677 -5.22401 -15.7452
ltibia 32.8879
lfoot -7.63562 2.68639
ltoes -42.3606
310
root 8.52923 24.1301 -5.93057 -172.306 3.37028 179.036
lowerback 5.07938 2.79653 -5.13427
upperback 5.71279 4.01492 1.55471
thorax 2.63225 1.99244 4.37015
lowerneck -5.95804 0.794159 -4.8241
upperneck 29.6533 -3.22478 7.18016
head 10.6084 -2.23884 2.90119
rclavicle 1.47101e-014 -2.66371e-014
rhumerus -17.9655 -5.31923 -86.2117
rradius 39.4949
rwrist 2.28307
rhand -12.2502 -42.7811
rfingers 7.12502
rthumb 13.8159 -72.3023
lclavicle 1.47101e-014 -2.66371e-014
lhumerus -33.8716 16.6654 75.5207
lradius 17.5356
lwrist -30.2663
lhand -24.3882 -22.9032
lfingers 7.12502
lthumb 2.10243 7.06616
rfemur -10.8635 0.511144 24.1035
rtibia 13.8066
rfoot -21.4746 0.652586
rtoes -24.4859
lfemur -47.6876 -4.91446 -15.8293
ltibia 33.1909
lfoot -5.80503 3.35935
ltoes -43.2903
311
root 8.51181 24.129 -6.12142 -172.637 4.53663 179.205
lowerback 4.58907 3.10829 -4.85793
upperback 5.89786 4.47594 1.47968
thorax 3.07128 2.2199 4.15911
lowerneck -6.0608 0.849124 -4.69678
upperneck 29.7614 -3.15591 7.09548
head 10.6624 -2.20429 2.85591
rclavicle -4.37326e-015 -1.51076e-014
rhumerus -17.7404 -4.54603 -86.8328
rradius 39.6527
rwrist 1.94288
rhand -13.3323 -37.0179
rfingers 7.12502
rthumb 12.7729 -66.6072
lclavicle -4.37326e-015 -1.51076e-014
lhumerus -34.1807 16.5537 75.3632
lradius 17.4813
lwrist -30.4993
lhand -24.3486 -23.1587
lfingers 7.12502
lthumb 2.14069 6.81033
rfemur -9.76006 0.721828 24.0947
rtibia 13.7324
rfoot -21.9678 1.6108
rtoes -24.2319
lfemur -46.9007 -4.40662 -15.7617
ltibia 33.4215
lfoot -4.63211 4.26023
ltoes -44.4501
312
root 8.50745 24.1256 -6.27569 -172.707 5.12193 179.244
lowerback 4.48237 3.2563 -4.81277
upperback 5.82803 4.66462 1.44536
thorax 3.04277 2.31283 4.09521
lowerneck -5.76119 0.869319 -4.54702
upperneck 29.9139 -3.2624 7.08397
head 10.6669 -2.27125 2.81296
rclavicle 2.38542e-014 -8.34896e-015
rhumerus -17.6912 -3.88006 -87.3659
rradius 39.6163
rwrist 1.55817
rhand -12.9117 -37.0392
rfingers 7.12502
rthumb 13.1783 -66.6027
lclavicle 2.38542e-014 -8.34896e-015
lhumerus -34.2899 16.8643 75.1102
lradius 17.0507
lwrist -31.1575
lhand -24.5378 -23.363
lfingers 7.12502
lthumb 1.95798 6.60776
rfemur -9.04066 1.02958 24.088
rtibia 13.6493
rfoot -22.3586 1.79953
rtoes -24.1429
lfemur -46.6735 -4.05845 -15.9742
ltibia 34.3999
lfoot -5.15205 4.30427
ltoes -40.4958
